<svg xmlns="http://www.w3.org/2000/svg" width="200" height="200" viewBox="0 0 200 200" style="margin-left:35px">
<rect width="200" height="200" fill="#348"/>
<circle cx="10" cy="30" r="3" fill="#cef"/>
<circle cx="35" cy="10" r="3" fill="#cef"/>
<circle cx="30" cy="30" r="3" fill="#cef"/>
<circle cx="60" cy="25" r="3" fill="#cef"/>
<circle cx="100" cy="25" r="3" fill="#cef"/>
<circle cx="190" cy="30" r="3" fill="#cef"/>
<circle cx="165" cy="10" r="3" fill="#cef"/>
<circle cx="170" cy="30" r="3" fill="#cef"/>
<circle cx="130" cy="20" r="3" fill="#cef"/>
<circle cx="170" cy="55" r="3" fill="#cef"/>
<circle cx="15" cy="75" r="3" fill="#cef"/>
<circle cx="35" cy="50" r="3" fill="#cef"/>
<circle cx="15" cy="130" r="3" fill="#cef"/>
<circle cx="20" cy="105" r="3" fill="#cef"/>
<circle cx="50" cy="80" r="3" fill="#cef"/>
<circle cx="180" cy="90" r="3" fill="#cef"/>
<circle cx="75" cy="115" r="3" fill="#cef"/>
<circle cx="185" cy="60" r="3" fill="#cef"/>
<circle cx="165" cy="90" r="3" fill="#cef"/>
<circle cx="150" cy="90" r="3" fill="#cef"/>
<circle cx="75" cy="70" r="3" fill="#cef"/>
<circle cx="125" cy="70" r="3" fill="#cef"/>
<rect x="25" y="170" width="5" height="5" fill="#c9f"/>
<rect x="185" y="170" width="5" height="5" fill="#c9f"/>
<rect x="165" y="170" width="5" height="5" fill="#c9f"/>
<rect x="160" y="185" width="5" height="5" fill="#c9f"/>
<rect x="80" y="175" width="5" height="5" fill="#c9f"/>
<rect x="55" y="160" width="5" height="5" fill="#c9f"/>
<rect x="75" y="130" width="5" height="5" fill="#c9f"/>
<rect x="110" y="170" width="5" height="5" fill="#c9f"/>
<rect x="135" y="150" width="5" height="5" fill="#c9f"/>
<rect x="120" y="120" width="5" height="5" fill="#c9f"/>
<rect x="155" y="100" width="5" height="5" fill="#c9f"/>
<rect x="185" y="100" width="5" height="5" fill="#c9f"/>
<rect x="170" y="105" width="5" height="5" fill="#c9f"/>
<rect x="155" y="140" width="5" height="5" fill="#c9f"/>
<rect x="170" y="120" width="5" height="5" fill="#c9f"/>
<rect x="45" y="100" width="5" height="5" fill="#c9f"/>
<rect x="95" y="80" width="5" height="5" fill="#c9f"/>
</svg>
